HIERARCHY
ROOT Hips
{
    OFFSET   0.000000   0.000000   0.000000
    CHANNELS 6 Xposition Yposition Zposition Zrotation Xrotation Yrotation
    JOINT Chest
    {
        OFFSET   0.000000   8.007230   0.000000
        CHANNELS 3 Zrotation Xrotation Yrotation
        JOINT Chest2
        {
            OFFSET   0.000000  22.077100   0.000000
            CHANNELS 3 Zrotation Xrotation Yrotation
            JOINT Neck
            {
                OFFSET   0.000000  23.254800  -0.000021
                CHANNELS 3 Zrotation Xrotation Yrotation
                JOINT Head
                {
                    OFFSET   0.000000  14.370000   1.956610
                    CHANNELS 3 Zrotation Xrotation Yrotation
                    End Site
                    {
                        OFFSET   0.000000  19.566000   0.000000
                    }
                }
            }
            JOINT LeftCollar
            {
                OFFSET   3.911900  19.017000  -0.467063
                CHANNELS 3 Zrotation Xrotation Yrotation
                JOINT LeftShoulder
                {
                    OFFSET  10.383700   0.000000   0.000000
                    CHANNELS 3 Zrotation Xrotation Yrotation
                    JOINT LeftElbow
                    {
                        OFFSET  26.662100   0.001529   0.000325
                        CHANNELS 3 Zrotation Xrotation Yrotation
                        JOINT LeftWrist
                        {
                            OFFSET  28.869000  -0.000011  -0.000096
                            CHANNELS 3 Zrotation Xrotation Yrotation
                            JOINT LeftFinger0
                            {
                                OFFSET   2.044650  -2.323460   3.252850
                                CHANNELS 3 Zrotation Xrotation Yrotation
                                JOINT LeftFinger01
                                {
                                    OFFSET   3.088130   0.000000   0.000000
                                    CHANNELS 3 Zrotation Xrotation Yrotation
                                    JOINT LeftFinger02
                                    {
                                        OFFSET   2.639460   0.000000   0.000000
                                        CHANNELS 3 Zrotation Xrotation Yrotation
                                        End Site
                                        {
                                            OFFSET   2.582190   0.000000   0.000000
                                        }
                                    }
                                }
                            }
                            JOINT LeftFinger1
                            {
                                OFFSET   8.364480   0.000000   3.252850
                                CHANNELS 3 Zrotation Xrotation Yrotation
                                JOINT LeftFinger11
                                {
                                    OFFSET   4.646930   0.000000   0.000000
                                    CHANNELS 3 Zrotation Xrotation Yrotation
                                    JOINT LeftFinger12
                                    {
                                        OFFSET   2.323460   0.000000   0.000000
                                        CHANNELS 3 Zrotation Xrotation Yrotation
                                        End Site
                                        {
                                            OFFSET   2.273050   0.000000   0.000000
                                        }
                                    }
                                }
                            }
                            JOINT LeftFinger2
                            {
                                OFFSET   8.364480   0.000016   1.078090
                                CHANNELS 3 Zrotation Xrotation Yrotation
                                JOINT LeftFinger21
                                {
                                    OFFSET   5.111620   0.000000   0.000000
                                    CHANNELS 3 Zrotation Xrotation Yrotation
                                    JOINT LeftFinger22
                                    {
                                        OFFSET   2.788160   0.000017   0.000000
                                        CHANNELS 3 Zrotation Xrotation Yrotation
                                        End Site
                                        {
                                            OFFSET   2.727660   0.000000   0.000000
                                        }
                                    }
                                }
                            }
                            JOINT LeftFinger3
                            {
                                OFFSET   7.899780   0.000015  -1.078090
                                CHANNELS 3 Zrotation Xrotation Yrotation
                                JOINT LeftFinger31
                                {
                                    OFFSET   4.646920   0.000000   0.000000
                                    CHANNELS 3 Zrotation Xrotation Yrotation
                                    JOINT LeftFinger32
                                    {
                                        OFFSET   2.323470   0.000000   0.000000
                                        CHANNELS 3 Zrotation Xrotation Yrotation
                                        End Site
                                        {
                                            OFFSET   2.273050   0.000000   0.000000
                                        }
                                    }
                                }
                            }
                            JOINT LeftFinger4
                            {
                                OFFSET   7.435090   0.000000  -3.252850
                                CHANNELS 3 Zrotation Xrotation Yrotation
                                JOINT LeftFinger41
                                {
                                    OFFSET   3.717550   0.000000   0.000000
                                    CHANNELS 3 Zrotation Xrotation Yrotation
                                    JOINT LeftFinger42
                                    {
                                        OFFSET   1.858760   0.000000   0.000000
                                        CHANNELS 3 Zrotation Xrotation Yrotation
                                        End Site
                                        {
                                            OFFSET   1.818440   0.000000   0.000000
                                        }
                                    }
                                }
                            }
                        }
                    }
                }
            }
            JOINT RightCollar
            {
                OFFSET  -3.911900  19.017000  -0.467062
                CHANNELS 3 Zrotation Xrotation Yrotation
                JOINT RightShoulder
                {
                    OFFSET -10.383700   0.000015   0.000000
                    CHANNELS 3 Zrotation Xrotation Yrotation
                    JOINT RightElbow
                    {
                        OFFSET -26.662100   0.001341   0.000385
                        CHANNELS 3 Zrotation Xrotation Yrotation
                        JOINT RightWrist
                        {
                            OFFSET -28.869000   0.000025  -0.000080
                            CHANNELS 3 Zrotation Xrotation Yrotation
                            JOINT RightFinger0
                            {
                                OFFSET  -2.044650  -2.323490   3.252850
                                CHANNELS 3 Zrotation Xrotation Yrotation
                                JOINT RightFinger01
                                {
                                    OFFSET  -3.088130   0.000000   0.000000
                                    CHANNELS 3 Zrotation Xrotation Yrotation
                                    JOINT RightFinger02
                                    {
                                        OFFSET  -2.639460   0.000000   0.000000
                                        CHANNELS 3 Zrotation Xrotation Yrotation
                                        End Site
                                        {
                                            OFFSET  -2.582190   0.000000   0.000000
                                        }
                                    }
                                }
                            }
                            JOINT RightFinger1
                            {
                                OFFSET  -8.364480   0.000000   3.252850
                                CHANNELS 3 Zrotation Xrotation Yrotation
                                JOINT RightFinger11
                                {
                                    OFFSET  -4.646930   0.000000   0.000000
                                    CHANNELS 3 Zrotation Xrotation Yrotation
                                    JOINT RightFinger12
                                    {
                                        OFFSET  -2.323470   0.000000   0.000000
                                        CHANNELS 3 Zrotation Xrotation Yrotation
                                        End Site
                                        {
                                            OFFSET  -2.273050   0.000000   0.000000
                                        }
                                    }
                                }
                            }
                            JOINT RightFinger2
                            {
                                OFFSET  -8.364480   0.000000   1.078090
                                CHANNELS 3 Zrotation Xrotation Yrotation
                                JOINT RightFinger21
                                {
                                    OFFSET  -5.111610   0.000000   0.000000
                                    CHANNELS 3 Zrotation Xrotation Yrotation
                                    JOINT RightFinger22
                                    {
                                        OFFSET  -2.788160   0.000000   0.000000
                                        CHANNELS 3 Zrotation Xrotation Yrotation
                                        End Site
                                        {
                                            OFFSET  -2.727660   0.000000   0.000000
                                        }
                                    }
                                }
                            }
                            JOINT RightFinger3
                            {
                                OFFSET  -7.899780   0.000000  -1.078090
                                CHANNELS 3 Zrotation Xrotation Yrotation
                                JOINT RightFinger31
                                {
                                    OFFSET  -4.646920   0.000000   0.000000
                                    CHANNELS 3 Zrotation Xrotation Yrotation
                                    JOINT RightFinger32
                                    {
                                        OFFSET  -2.323470   0.000000   0.000000
                                        CHANNELS 3 Zrotation Xrotation Yrotation
                                        End Site
                                        {
                                            OFFSET  -2.273050   0.000000   0.000000
                                        }
                                    }
                                }
                            }
                            JOINT RightFinger4
                            {
                                OFFSET  -7.435090   0.000000  -3.252850
                                CHANNELS 3 Zrotation Xrotation Yrotation
                                JOINT RightFinger41
                                {
                                    OFFSET  -3.717550   0.000000   0.000000
                                    CHANNELS 3 Zrotation Xrotation Yrotation
                                    JOINT RightFinger42
                                    {
                                        OFFSET  -1.858770   0.000000   0.000000
                                        CHANNELS 3 Zrotation Xrotation Yrotation
                                        End Site
                                        {
                                            OFFSET  -1.818440   0.000000   0.000000
                                        }
                                    }
                                }
                            }
                        }
                    }
                }
            }
        }
    }
    JOINT LeftHip
    {
        OFFSET   9.783010   0.000000   0.000000
        CHANNELS 3 Zrotation Xrotation Yrotation
        JOINT LeftKnee
        {
            OFFSET   0.000070 -41.789100   0.000028
            CHANNELS 3 Zrotation Xrotation Yrotation
            JOINT LeftAnkle
            {
                OFFSET   0.000087 -41.133200  -0.000100
                CHANNELS 3 Zrotation Xrotation Yrotation
                JOINT LeftToe
                {
                    OFFSET   0.000000  -6.358960  14.674500
                    CHANNELS 3 Zrotation Xrotation Yrotation
                    End Site
                    {
                        OFFSET   0.000000   0.000000   3.913200
                    }
                }
            }
        }
    }
    JOINT RightHip
    {
        OFFSET  -9.783020   0.000000   0.000000
        CHANNELS 3 Zrotation Xrotation Yrotation
        JOINT RightKnee
        {
            OFFSET   0.000044 -41.789100  -0.000870
            CHANNELS 3 Zrotation Xrotation Yrotation
            JOINT RightAnkle
            {
                OFFSET  -0.000090 -41.133200  -0.000245
                CHANNELS 3 Zrotation Xrotation Yrotation
                JOINT RightToe
                {
                    OFFSET   0.000000  -6.358960  14.674500
                    CHANNELS 3 Zrotation Xrotation Yrotation
                    End Site
                    {
                        OFFSET   0.000000   0.000000   3.913200
                    }
                }
            }
        }
    }
}
MOTION
Frames: 5
Frame Time:   0.016667
  0.917703  90.054400   2.772180  -1.923870  -3.806110   0.571107  -0.030440   4.612620   0.197588  -0.077272   9.225110   0.399600   1.718470  -0.145173   0.007896   2.822200  -0.293081   3.513330  -4.615530  -0.017027   4.929380 -68.205800  22.214300  -3.226690  -5.803340 -10.056300 -18.187900  17.964600  -1.299350  13.328300  45.667200  33.850300 -69.915700 -20.728300  -0.009397   0.008249  -5.364160   0.002685  -0.000187 -33.528600  10.787600 -15.774000 -28.658000   0.002812  -0.007629 -20.060600  -0.001072  -0.004961 -29.090800   3.227000  -5.778480 -43.823300  -0.004413  -0.013435 -29.186400   0.000000  -0.010597 -28.227700   2.661190  -4.941270 -34.595300   0.001697   0.001724 -23.040500  -0.005672   0.001498 -36.775300  -0.193366   0.258459 -55.163300  -0.005473  -0.001282 -36.738800  -0.001482  -0.002086  11.379900   2.301070   4.701270  66.759700  13.126300   1.767070   2.640690  -5.589570  16.755200 -20.257400 -14.525100   0.996458 -35.464200  29.708200  65.451800  32.984000   0.001912  -0.001148  11.493600   0.002260  -0.003466  34.938400   3.062830   4.373590  28.679300  -0.004128   0.002329  20.089800   0.002778   0.002053  28.587000  -3.120940  -5.705440  40.053100  -0.005199   0.009737  26.666800   0.000984   0.008852  28.407900  -4.602230  -8.440930  39.966000  -0.005710   0.000071  26.617400  -0.003418  -0.000213  41.388700  -6.385760  -7.191180  62.693500  -0.000966   0.001166  41.755200   0.000744  -0.004085   1.633340   5.708310   2.278080   0.672451   0.070043  13.474900  -5.418640  -3.434400   4.263000  -0.000000   0.000000  -0.000000   2.036700   5.208780  -9.458310  -0.443735   2.248370  -7.897370  -8.560040   0.254133   0.049950   0.000000   0.000000  -0.000000
  0.911898  90.054600   2.774240  -1.930540  -3.878340   0.551868  -0.027934   4.653930   0.200390  -0.072625   9.307740   0.405089   1.717860  -0.154622   0.007903   2.822240  -0.312454   3.539630  -4.622030  -0.086482   4.883030 -68.203400  22.309200  -3.196780  -5.808050 -10.086100 -18.203600  17.959000  -1.555820  13.350800  45.695700  34.228100 -70.635300 -20.808800  -0.009405   0.008566  -5.404400   0.002594  -0.000364 -33.897000  10.941700 -15.768700 -28.977300   0.002816  -0.007651 -20.284100  -0.001077  -0.004964 -29.053300   3.168820  -5.685550 -44.052700  -0.004412  -0.013765 -29.339200  -0.000116  -0.010818 -28.247100   2.782680  -5.171010 -34.765000  -0.004371  -0.007709 -23.153500  -0.005843  -0.006080 -36.831600  -0.208281   0.277838 -55.248300  -0.005568  -0.001022 -36.795500  -0.001484  -0.002125  11.381900   2.266850   4.706540  66.733400  13.176200   1.785250   2.639840  -5.623070  16.739200 -20.257300 -14.532800   0.996493 -35.457800  29.690300  65.439000  32.981500   0.001911  -0.001146  11.491700   0.002262  -0.003471  34.941400   3.071240   4.385050  28.683300  -0.004073   0.002269  20.090000   0.002769   0.002007  28.587700  -3.117700  -5.699510  40.052200  -0.004914   0.009657  26.669500   0.000923   0.008771  28.409400  -4.597390  -8.431800  39.977400  -0.005475   0.000071  26.624900  -0.003307  -0.000213  41.390300  -6.379220  -7.183150  62.699000  -0.000966   0.001166  41.755100   0.000745  -0.004148   1.646070   5.787280   2.325970   0.669292   0.070820  13.472100  -5.426090  -3.435780   4.234380   0.000000   0.000000  -0.000000   2.046920   5.275140  -9.453160  -0.450452   2.255700  -7.886920  -8.559980   0.252797   0.052682   0.000000   0.000000   0.000000
  0.903011  90.055700   2.781720  -1.943180  -4.024840   0.509977  -0.019498   4.733200   0.205579  -0.056405   9.466290   0.414917   1.713590  -0.168512   0.007921   2.815240  -0.340849   3.597640  -4.655450  -0.155958   4.783380 -68.199600  22.442300  -3.154940  -5.788310 -10.139100 -18.304100  17.828800  -1.931120  13.500700  45.862500  34.975900 -72.177300 -21.063200  -0.009413   0.009009  -5.531580   0.002443  -0.000660 -34.265500  11.095900 -15.763600 -29.296600   0.002828  -0.007697 -20.507600  -0.001088  -0.004970 -28.965600   3.029010  -5.457430 -44.282200  -0.004412  -0.014095 -29.492000  -0.000318  -0.011039 -28.265600   2.904040  -5.400820 -34.934600  -0.012291  -0.017143 -23.266400  -0.006014  -0.013658 -36.887800  -0.223195   0.297218 -55.333300  -0.005664  -0.000658 -36.852100  -0.001485  -0.002178  11.382200   2.205710   4.718680  66.688400  13.252900   1.818940   2.636450  -5.683570  16.714300 -20.257000 -14.548100   0.996563 -35.450200  29.660500  65.418000  32.971900   0.001911  -0.001143  11.486000   0.002264  -0.003484  34.946100   3.086690   4.406230  28.689500  -0.004019   0.002170  20.090200   0.002749   0.001929  28.588900  -3.111320  -5.687780  40.051400  -0.004630   0.009578  26.674200   0.000801   0.008689  28.412100  -4.588650  -8.415360  39.993100  -0.005240   0.000071  26.635400  -0.003197  -0.000213  41.393300  -6.367300  -7.168820  62.704600  -0.000966   0.001166  41.754900   0.000746  -0.004253   1.669970   5.942100   2.422460   0.663208   0.076257  13.463600  -5.439800  -3.444830   4.182080  -0.000000   0.000000   0.000000   2.067810   5.413010  -9.436100  -0.465098   2.269740  -7.876510  -8.559840   0.247247   0.059787  -0.000000   0.000000   0.000000
  0.896481  90.058500   2.797720  -1.956930  -4.205550   0.457953  -0.003117   4.821590   0.209711  -0.024151   9.643160   0.421934   1.698450  -0.174998   0.007947   2.789900  -0.353853   3.676670  -4.725780  -0.154763   4.646950 -68.195900  22.499900  -3.137290  -5.698910 -10.207800 -18.532400  17.469200  -2.149010  14.051200  46.153300  36.045300 -74.034800 -21.678200  -0.004770   0.009191  -5.839120   0.002293  -0.000962 -33.571100  10.996800 -16.048500 -28.741000   0.002848  -0.007754 -20.118700  -0.001102  -0.004977 -28.826200   2.811040  -5.097350 -43.725500  -0.005757  -0.012275 -29.121300  -0.000547  -0.009991 -28.217700   2.728550  -5.080700 -34.486500  -0.014452  -0.016718 -22.968000  -0.005971  -0.013472 -36.651300  -0.165509   0.219532 -54.979000  -0.005640  -0.000502 -36.616100  -0.001485  -0.002202  11.370000   2.142270   4.732790  66.648700  13.311000   1.850360   2.631480  -5.745680  16.694500 -20.256800 -14.564800   1.002640 -35.452000  29.631000  65.397700  32.950200   0.001911  -0.001144  11.475100   0.002262  -0.003502  34.949200   3.103510   4.429620  28.693100  -0.004147   0.002074  20.088600   0.002724   0.001847  28.590400  -3.103490  -5.673350  40.054300  -0.006738   0.009598  26.677100   0.000643   0.008710  28.415000  -4.579320  -8.398010  39.997800  -0.005299   0.000071  26.638900  -0.003225  -0.000213  41.396500  -6.354360  -7.153940  62.704600  -0.000967   0.001166  41.754800   0.000745  -0.004358   1.699400   6.116130   2.536080   0.650869   0.119661  13.443600  -5.455900  -3.480180   4.133730  -0.000000   0.000000   0.000000   2.094630   5.590490  -9.404990  -0.483376   2.283380  -7.876800  -8.559750   0.235934   0.068958  -0.000000   0.000000   0.000000
  0.893034  90.061700   2.815540  -1.972000  -4.400310   0.389860   0.016998   4.916200   0.216683   0.015346   9.832480   0.434312   1.677850  -0.180703   0.007980   2.756590  -0.365266   3.767000  -4.818720  -0.146211   4.503010 -68.193700  22.519400  -3.131550  -5.589120 -10.235200 -18.974300  16.999500  -2.241740  15.048500  46.627700  37.415900 -76.214400 -22.119400   0.001764   0.009249  -6.059710   0.002203  -0.001144 -32.179500  10.804100 -16.631800 -27.627200   0.002872  -0.007812 -19.339000  -0.001120  -0.004985 -28.684500   2.573380  -4.697410 -42.795000  -0.007101  -0.007492 -28.501500  -0.000690  -0.006624 -28.149100   2.385610  -4.451230 -33.651600  -0.014760  -0.013747 -22.412000  -0.005673  -0.012176 -36.281500  -0.073680   0.096747 -54.424500  -0.005474  -0.000450 -36.246700  -0.001482  -0.002209  11.350300   2.085610   4.756260  66.610800  13.341900   1.891100   2.620470  -5.805560  16.684400 -20.263500 -14.585700   1.014870 -35.454900  29.613400  65.385600  32.927600   0.001912  -0.001147  11.463800   0.002259  -0.003522  34.952400   3.119200   4.451390  28.696400  -0.004426   0.002017  20.087000   0.002693   0.001798  28.591900  -3.095780  -5.659100  40.063200  -0.010338   0.009737  26.682100   0.000500   0.008851  28.417500  -4.570980  -8.382510  40.000100  -0.005710   0.000071  26.640700  -0.003418  -0.000214  41.399400  -6.342680  -7.140730  62.704500  -0.000969   0.001166  41.754800   0.000745  -0.004422   1.722240   6.315110   2.666870   0.636869   0.158411  13.429400  -5.467930  -3.508040   4.073630   0.000000   0.000000   0.000000   2.125720   5.780860  -9.363080  -0.507895   2.302250  -7.878390  -8.559400   0.220415   0.084927   0.000000   0.000000   0.000000
